<svg width="27" height="27" viewBox="0 0 27 27" fill="none" xmlns="http://www.w3.org/2000/svg">
<path d="M13.5 18C15.9818 18 18 15.9806 18 13.5V6.75C18 4.26825 15.9818 2.25 13.5 2.25C11.0182 2.25 9 4.26825 9 6.75V13.5C9 15.9806 11.0182 18 13.5 18ZM21.375 13.5V11.25C21.375 10.9516 21.2565 10.6655 21.0455 10.4545C20.8345 10.2435 20.5484 10.125 20.25 10.125C19.9516 10.125 19.6655 10.2435 19.4545 10.4545C19.2435 10.6655 19.125 10.9516 19.125 11.25V13.5C19.125 16.6016 16.6016 19.125 13.5 19.125C10.3984 19.125 7.875 16.6016 7.875 13.5V11.25C7.875 10.9516 7.75647 10.6655 7.54549 10.4545C7.33452 10.2435 7.04837 10.125 6.75 10.125C6.45163 10.125 6.16548 10.2435 5.95451 10.4545C5.74353 10.6655 5.625 10.9516 5.625 11.25V13.5C5.625 17.46 8.56462 20.736 12.375 21.285V22.5H9C8.70163 22.5 8.41548 22.6185 8.2045 22.8295C7.99353 23.0405 7.875 23.3266 7.875 23.625C7.875 23.9234 7.99353 24.2095 8.2045 24.4205C8.41548 24.6315 8.70163 24.75 9 24.75H18C18.2984 24.75 18.5845 24.6315 18.7955 24.4205C19.0065 24.2095 19.125 23.9234 19.125 23.625C19.125 23.3266 19.0065 23.0405 18.7955 22.8295C18.5845 22.6185 18.2984 22.5 18 22.5H14.625V21.285C18.4354 20.736 21.375 17.46 21.375 13.5Z" fill="white"/>
</svg>
