<svg width="22" height="27" viewBox="0 0 22 27" fill="none" xmlns="http://www.w3.org/2000/svg">
<path d="M21.6812 16.6653L19.3981 14.1992V10.9323C19.3955 8.67459 18.618 6.49817 17.2159 4.82384C15.8139 3.1495 13.8869 2.0962 11.8075 1.86759V0H10.1207V1.86759C8.04142 2.0962 6.11442 3.1495 4.71236 4.82384C3.31031 6.49817 2.5328 8.67459 2.53019 10.9323V14.1992L0.247115 16.6653C0.0889366 16.8361 4.77677e-05 17.0678 0 17.3094V20.0425C0 20.2841 0.0888575 20.5158 0.247025 20.6866C0.405192 20.8575 0.619713 20.9535 0.843396 20.9535H6.74717V21.6613C6.72845 22.8172 7.10544 23.9398 7.80585 24.8139C8.50626 25.688 9.48076 26.252 10.5424 26.3977C11.1288 26.4605 11.7207 26.3901 12.2803 26.1909C12.8399 25.9918 13.3547 25.6683 13.7916 25.2413C14.2286 24.8143 14.5779 24.2933 14.8172 23.7117C15.0565 23.1302 15.1805 22.5009 15.1811 21.8645V20.9535H21.0849C21.3086 20.9535 21.5231 20.8575 21.6813 20.6866C21.8394 20.5158 21.9283 20.2841 21.9283 20.0425V17.3094C21.9282 17.0678 21.8394 16.8361 21.6812 16.6653ZM13.4943 21.8645C13.4943 22.5894 13.2278 23.2845 12.7533 23.7971C12.2788 24.3096 11.6352 24.5976 10.9641 24.5976C10.2931 24.5976 9.64953 24.3096 9.17503 23.7971C8.70053 23.2845 8.43396 22.5894 8.43396 21.8645V20.9535H13.4943V21.8645ZM20.2415 19.1314H1.68679V17.6866L3.96986 15.2204C4.12804 15.0496 4.21693 14.8179 4.21698 14.5763V10.9323C4.21698 8.99931 4.92784 7.14553 6.19318 5.77874C7.45852 4.41194 9.17468 3.64408 10.9641 3.64408C12.7536 3.64408 14.4698 4.41194 15.7351 5.77874C17.0004 7.14553 17.7113 8.99931 17.7113 10.9323V14.5763C17.7114 14.8179 17.8002 15.0496 17.9584 15.2204L20.2415 17.6866V19.1314Z" fill="white"/>
</svg>
