<svg width="23" height="17" viewBox="0 0 23 17" fill="none" xmlns="http://www.w3.org/2000/svg">
<path fill-rule="evenodd" clip-rule="evenodd" d="M3.625 0.625C2.72989 0.625 1.87145 0.980579 1.23851 1.61351C0.605579 2.24645 0.25 3.10489 0.25 4V13C0.25 13.8951 0.605579 14.7536 1.23851 15.3865C1.87145 16.0194 2.72989 16.375 3.625 16.375H14.875C15.7701 16.375 16.6286 16.0194 17.2615 15.3865C17.8944 14.7536 18.25 13.8951 18.25 13V11.2157L20.8296 13.7954C20.987 13.9527 21.1874 14.0598 21.4056 14.1032C21.6238 14.1465 21.8499 14.1243 22.0555 14.0391C22.261 13.954 22.4367 13.8099 22.5603 13.6249C22.6839 13.4399 22.75 13.2225 22.75 13V4C22.75 3.77753 22.6839 3.56007 22.5603 3.37511C22.4367 3.19015 22.261 3.04599 22.0555 2.96086C21.8499 2.87573 21.6238 2.85345 21.4056 2.89684C21.1874 2.94023 20.987 3.04734 20.8296 3.20463L18.25 5.78425V4C18.25 3.10489 17.8944 2.24645 17.2615 1.61351C16.6286 0.980579 15.7701 0.625 14.875 0.625H3.625Z" fill="white"/>
</svg>
