<svg width="28" height="28" viewBox="0 0 28 28" fill="none" xmlns="http://www.w3.org/2000/svg">
<path opacity="0.8" d="M19.8016 2.7244C20.0072 2.41538 20.3271 2.20064 20.6909 2.1274C21.0548 2.05415 21.4329 2.12839 21.742 2.3338C23.6675 3.61028 25.2467 5.34382 26.3388 7.37957C27.4308 9.41531 28.0015 11.6899 28 14C28 21.7322 21.7322 28 14 28C6.2678 28 3.00939e-06 21.7322 3.00939e-06 14C-0.00151229 11.6899 0.569233 9.41531 1.66125 7.37957C2.75327 5.34382 4.33255 3.61028 6.258 2.3338C6.5673 2.12828 6.94557 2.05405 7.30959 2.12743C7.67362 2.20082 7.99359 2.4158 8.1991 2.7251C8.40462 3.0344 8.47885 3.41266 8.40547 3.77669C8.33208 4.14072 8.1171 4.46068 7.8078 4.6662C5.80306 5.99636 4.27992 7.93671 3.4639 10.2C2.64788 12.4633 2.58236 14.9292 3.27702 17.2326C3.97169 19.536 5.38962 21.5545 7.32089 22.9893C9.25216 24.424 11.5941 25.1988 14 25.1988C16.4059 25.1988 18.7478 24.424 20.6791 22.9893C22.6104 21.5545 24.0283 19.536 24.723 17.2326C25.4176 14.9292 25.3521 12.4633 24.5361 10.2C23.7201 7.93671 22.1969 5.99636 20.1922 4.6662C20.0389 4.56451 19.9071 4.43359 19.8044 4.28094C19.7017 4.12828 19.6301 3.95689 19.5937 3.77655C19.5573 3.59621 19.5568 3.41046 19.5922 3.22992C19.6277 3.04939 19.6997 2.87761 19.8016 2.7244ZM14 0C14.3429 4.52348e-05 14.6739 0.125939 14.9301 0.353801C15.1864 0.581664 15.3501 0.895648 15.3902 1.2362L15.4 1.4V15.4C15.3996 15.7568 15.263 16.1 15.018 16.3595C14.7731 16.619 14.4383 16.7751 14.082 16.796C13.7258 16.817 13.3751 16.7011 13.1014 16.472C12.8278 16.243 12.6519 15.9181 12.6098 15.5638L12.6 15.4V1.4C12.6 1.0287 12.7475 0.672601 13.0101 0.41005C13.2726 0.1475 13.6287 0 14 0Z" fill="white"/>
</svg>
